<?xml version="1.0" encoding="UTF-8" standalone="no"?>
<!-- Created with Inkscape (http://www.inkscape.org/) -->

<svg
   width="137.41026mm"
   height="137.40268mm"
   viewBox="0 0 137.41026 137.40268"
   version="1.1"
   id="svg5"
   xmlns:inkscape="http://www.inkscape.org/namespaces/inkscape"
   xmlns:sodipodi="http://sodipodi.sourceforge.net/DTD/sodipodi-0.dtd"
   xmlns="http://www.w3.org/2000/svg"
   xmlns:svg="http://www.w3.org/2000/svg">
  <sodipodi:namedview
     id="namedview7"
     pagecolor="#ffffff"
     bordercolor="#000000"
     borderopacity="0.25"
     inkscape:showpageshadow="2"
     inkscape:pageopacity="0.0"
     inkscape:pagecheckerboard="0"
     inkscape:deskcolor="#d1d1d1"
     inkscape:document-units="mm"
     showgrid="false"
     inkscape:zoom="1.671875"
     inkscape:cx="194.99065"
     inkscape:cy="334.05607"
     inkscape:window-width="1920"
     inkscape:window-height="1051"
     inkscape:window-x="-9"
     inkscape:window-y="-9"
     inkscape:window-maximized="1"
     inkscape:current-layer="layer1" />
  <defs
     id="defs2" />
  <g
     inkscape:label="Layer 1"
     inkscape:groupmode="layer"
     id="layer1"
     transform="translate(-5.8889343,-5.888223)">
    <g
       id="g2468"
       transform="matrix(1.2241707,0,0,1.5306457,-39.678996,5.595828)"
       inkscape:export-filename="g2468.svg"
       inkscape:export-xdpi="47.323677"
       inkscape:export-ydpi="47.323677">
      <path
         style="fill:#800000;fill-opacity:0.504808;stroke-width:1.45285"
         id="path2379"
         d="M 91.63325,9.0594408 C 88.545559,7.8339514 88.496987,7.7772122 84.723244,6.5121887 82.828545,5.8770533 80.9323,5.243205 79.012283,4.6746832 76.853654,4.0355066 74.693429,3.3892565 72.490772,2.8901204 66.6403,1.5643658 64.729898,1.533375 58.835296,0.91300798 56.847909,0.93065604 54.847676,0.75963165 52.873134,0.9659432 49.476651,1.3208187 46.275489,2.2946666 43.516932,4.1710456 42.287768,5.0071279 41.136671,5.9905344 40.275358,7.1469955 37.879052,10.364446 37.932336,12.652007 37.22351,16.40431 c 0.08432,1.887617 -0.159438,3.811419 0.252974,5.662856 1.117183,5.015355 4.019074,9.873135 7.390029,13.879242 4.48941,5.335302 10.701524,10.374433 16.386871,14.57094 2.993757,2.209774 6.166732,4.210006 9.250098,6.315007 6.654418,4.364811 13.591003,8.34724 20.57598,12.251562 2.445209,1.366773 6.457656,3.564005 8.953518,4.994041 1.27896,0.732804 2.54157,1.489038 3.81236,2.233564 2.81042,1.706168 5.57009,3.481512 8.26665,5.333975 0.558,0.383324 1.10444,0.780444 1.6611,1.165375 1.23191,0.851886 1.3322,0.904924 2.54472,1.691378 2.338,1.397552 4.65757,2.818312 6.94777,4.280088 0,0 3.28301,1.176471 3.28301,1.176471 v 0 c -2.30949,-1.44114 -4.61983,-2.88076 -6.95872,-4.282224 -1.09101,-0.684986 -1.65214,-1.029739 -2.75435,-1.755799 -0.62058,-0.408796 -1.23135,-0.829845 -1.85167,-1.238969 -2.88587,-1.903284 -5.81356,-3.754027 -8.79016,-5.537784 -1.31204,-0.760807 -2.61406,-1.53618 -3.93614,-2.282426 -2.660429,-1.501678 -6.895066,-3.76732 -9.505089,-5.188542 C 85.290764,65.60998 77.843976,61.512148 70.7512,56.922086 67.656985,54.813749 64.464587,52.820017 61.468551,50.59708 55.857387,46.433821 50.13207,41.711222 45.836695,36.338375 c -3.19636,-3.998152 -5.648632,-8.530536 -6.560266,-13.441702 -0.338607,-1.824149 -0.07392,-3.699492 -0.110885,-5.549239 0.848598,-3.829579 0.798632,-5.746757 3.270035,-8.9966005 0.858042,-1.1283058 1.960629,-2.1115904 3.153429,-2.9501308 2.646879,-1.860762 5.703325,-2.8870628 8.997996,-3.305274 1.89569,-0.2406312 3.82591,-0.1151345 5.738865,-0.1727017 2.180277,0.2090133 4.375453,0.3148976 6.540833,0.627039 2.362978,0.340627 4.711658,0.7814445 7.027367,1.3288337 2.261392,0.5345506 4.477334,1.2215524 6.686914,1.9129646 3.82068,1.1955505 7.277279,2.4891607 10.938216,4.00335 0.980156,0.4053997 1.933172,0.8631907 2.899759,1.2947867 0,0 -2.785708,-2.0302602 -2.785708,-2.0302602 z" />
      <path
         style="fill:#800000;fill-opacity:0.504808;stroke-width:2.06491"
         id="path2381"
         d="m 87.165296,28.748884 c -0.04886,-0.848811 -0.241345,-1.751145 0.05009,-2.58784 0.671542,-1.928008 1.930857,-3.685862 3.365991,-5.244349 1.122514,-1.218997 2.424453,-2.304123 3.636682,-3.456185 4.146981,-3.087276 5.923611,-4.629905 10.609931,-7.198944 4.39464,-2.4091489 8.71425,-4.2308344 13.58896,-5.7895749 2.23829,-0.7157162 4.50055,-1.4152958 6.83555,-1.8360681 2.19042,-0.3947125 4.45016,-0.3990542 6.67523,-0.5985817 4.59663,0.776102 7.89983,0.7183583 11.50902,3.7506123 0.76297,0.6409966 0.72715,1.7357613 1.01873,2.623186 0.85284,2.5955814 2.14926,5.1319484 2.41322,7.8218074 1.16665,11.889241 -2.18795,19.207768 -5.32036,31.254895 -9.97653,28.186177 -4.85246,14.256275 -15.35524,41.794446 0,0 0.1021,0.04898 0.1021,0.04898 v 0 c 10.50298,-27.538514 5.37877,-13.608405 15.35563,-41.795084 1.98227,-6.116614 4.34318,-12.149699 5.94679,-18.349845 1.04259,-4.031012 3.47751,-14.683169 0.28669,-19.5113095 -1.67232,-2.5304435 -8.89212,-7.3971255 -12.80763,-8.5862251 -1.95927,-0.59500624 -4.0928,-0.59851813 -6.1392,-0.89777716 -2.20028,0.23948745 -4.43958,0.28679593 -6.60081,0.71846246 -2.29833,0.4590499 -4.50946,1.2114882 -6.71363,1.9408439 -4.509,1.492013 -9.67801,3.5624906 -13.81061,5.7396166 -3.571133,1.8813328 -7.748939,4.8069408 -11.05802,7.0258408 -3.378811,2.773941 -4.136893,3.105459 -6.686319,6.151552 -0.586678,0.700973 -1.142053,1.430224 -1.574734,2.211446 -0.439058,0.792725 -0.343067,1.661381 -0.446061,2.500202 0,0 5.118056,2.26997 5.118056,2.26997 z" />
      <path
         style="fill:#ff6600;fill-opacity:0.504808;stroke-width:1.13288"
         id="path2385"
         d="m 83.420634,88.6099 c -0.02776,-0.315612 -0.06252,-0.630444 -0.08327,-0.946837 -0.333747,-5.085483 -0.423711,-10.197522 -0.383418,-15.296761 0.01465,-1.853465 0.06428,-3.706297 0.09641,-5.559451 0.135376,-5.531189 0.454098,-11.05097 0.806114,-16.567037 0.267082,-4.185131 0.547294,-8.36832 0.8551,-12.549383 0.279328,-3.501949 0.250372,-7.033725 -0.03418,-10.533072 -0.793141,-0.423592 -1.511975,-1.309564 -2.379423,-1.270772 -0.386056,0.01726 0.136499,0.913315 0.214902,1.367559 0.141005,0.816942 0.292301,1.631291 0.443263,2.445663 0.222078,1.198024 0.450959,2.394219 0.675845,3.591487 0.268365,1.428737 0.51638,2.863178 0.803906,4.286531 0.363098,1.797471 0.76517,3.583267 1.147758,5.374902 1.145759,5.640545 2.425169,11.238461 3.81767,16.797921 0.788336,3.147385 1.449583,5.81349 2.429832,8.860401 0.372976,1.159335 0.809651,2.287653 1.21448,3.43148 0.93282,2.101449 1.302411,3.128591 2.42852,4.995847 0.339058,0.562201 0.699509,1.110111 1.104345,1.605607 1.016527,1.244171 2.995021,2.505962 4.109582,2.997867 0.35829,0.158122 0.76168,-0.06229 1.14252,-0.09343 0.35681,-0.205499 0.75642,-0.327314 1.07042,-0.616481 0.75443,-0.694831 1.39854,-1.96862 1.71239,-3.005937 0.52279,-1.727857 0.66811,-3.532419 0.63936,-5.359843 -0.0163,-1.039675 -0.15547,-2.071318 -0.23321,-3.106974 -0.20157,-1.013034 -0.31032,-2.059388 -0.60469,-3.039113 -0.61883,-2.059621 -1.64179,-4.033222 -2.94776,-5.567904 -1.86727,-2.194276 -4.659292,-3.942739 -6.982701,-5.038299 -1.236444,-0.583022 -2.571221,-0.802765 -3.856837,-1.204151 -1.546329,-0.190395 -3.086363,-0.481058 -4.63899,-0.571188 -3.067936,-0.178088 -6.86035,0.05603 -9.92032,0.409842 -2.151924,0.248817 -5.858577,0.862796 -8.044027,1.49365 -1.034817,0.298708 -2.036016,0.7456 -3.054024,1.1184 -0.82093,0.452675 -1.675942,0.825177 -2.462792,1.358023 -0.66616,0.451115 -1.286619,1.000269 -1.878506,1.581847 -1.272362,1.250214 -2.458459,2.90375 -2.604619,4.964399 -0.0393,0.554107 0.08487,1.107544 0.127302,1.661303 0.201089,0.535334 0.344004,1.108013 0.603267,1.605961 0.658717,1.265133 1.50472,2.128294 2.563074,2.906978 1.894112,1.393589 3.666157,2.712974 5.839348,3.262828 0.915295,0.231577 1.857308,0.269164 2.785961,0.403743 1.015417,0.0063 2.03302,0.09608 3.046249,0.01595 1.961528,-0.155182 4.455197,-0.728223 6.322648,-1.456116 1.060244,-0.413256 2.095075,-0.924378 3.105444,-1.489771 2.59007,-1.449451 3.41441,-2.26579 5.783636,-4.162482 3.538697,-3.167368 6.503897,-7.10273 9.483525,-10.979012 0,0 -1.537227,-1.114644 -1.537227,-1.114644 v 0 c -0.60753,0.876028 -1.194639,1.773068 -1.822586,2.628086 -2.267644,3.087659 -4.727611,5.96869 -7.496782,8.409545 -2.31668,1.842963 -3.234387,2.730653 -5.772773,4.121147 -2.971437,1.627705 -6.196705,2.627813 -9.464356,2.819715 -1.027297,0.06032 -2.056532,-0.05551 -3.084798,-0.08324 -4.589568,-0.878461 -1.226681,-0.02115 -5.166272,-1.516736 -0.02774,-0.01045 -0.03454,0.09675 -0.05879,0.07746 -0.508289,-0.404382 -1.025976,-0.803522 -1.475544,-1.298123 -0.987892,-1.086842 -1.05174,-1.557535 -1.61062,-2.936123 -0.0612,-0.530422 -0.200037,-1.05614 -0.183589,-1.591258 0.06115,-1.98934 1.127686,-3.685142 2.300611,-4.969021 0.545651,-0.597271 1.123691,-1.160663 1.749122,-1.631852 0.737552,-0.55565 1.548293,-0.957041 2.322439,-1.435565 0.967208,-0.40599 1.915998,-0.881867 2.901624,-1.217975 2.24965,-0.767149 5.45151,-1.436485 7.719086,-1.742806 3.250512,-0.439107 6.668943,-0.636631 9.935132,-0.364166 1.610516,0.13435 3.201879,0.499612 4.802817,0.749417 1.332263,0.458599 2.675683,0.872776 3.996778,1.375801 0.575759,0.219226 1.173553,0.410327 1.688697,0.789018 2.449527,1.800692 4.299063,4.390768 5.288433,7.638247 0.29503,0.968376 0.40804,2.003248 0.61206,3.004874 0.0666,1.015098 0.20404,2.027048 0.19976,3.045266 -0.01,2.345831 -0.40748,4.867545 -1.62658,6.773051 -0.26992,0.421896 -0.59045,0.808692 -0.95681,1.107901 -0.30815,0.251668 -0.68798,0.344244 -1.031967,0.516369 -0.354047,0.0033 -0.978798,-0.406223 -1.062138,0.0074 -0.08821,0.437353 1.203845,1.072021 0.896412,0.81474 -0.40706,-0.340669 -0.831351,-0.660193 -1.195429,-1.06497 C 98.098999,79.142595 97.692746,78.579548 97.3089,78.000089 96.024522,76.060765 95.661937,75.105963 94.590397,72.891515 94.134293,71.723767 93.644554,70.574124 93.222089,69.388255 92.203102,66.527997 91.264777,63.309084 90.476311,60.361974 89.00238,54.852663 87.771638,49.254289 86.718245,43.60863 c -0.7175,-4.255008 -1.467754,-8.49547 -1.895726,-12.810285 -0.07485,-0.754669 -0.129836,-1.512355 -0.170757,-2.270768 -0.01965,-0.364317 0.206553,-0.839954 -0.01085,-1.095163 -0.631978,-0.741867 -1.52643,-1.070234 -2.289646,-1.60535 0.06527,0.180362 0.152271,0.351513 0.195819,0.541091 0.145241,0.632293 0.329726,2.196775 0.380455,2.739775 0.236063,2.526782 0.268962,5.072155 0.22018,7.611998 -0.02844,1.205665 -0.04896,2.411637 -0.08534,3.616993 -0.09749,3.230154 -0.220529,5.933707 -0.365681,9.181916 -0.73916,16.541195 0.274478,-6.488155 -0.487892,10.893939 -0.08404,1.906458 -0.168929,3.812869 -0.253396,5.719296 -0.05858,1.837608 -0.118641,3.675147 -0.17575,5.512831 -0.160777,5.173504 -0.250298,10.362633 -0.73491,15.511373 0,0 2.375881,1.453657 2.375881,1.453657 z" />
      <path
         style="fill:#ff7f2a;fill-opacity:0.504808;stroke-width:0.968713"
         id="path2387"
         d="m 94.894977,52.524386 c 0.187008,-0.07348 0.372624,-0.15467 0.561022,-0.220439 1.895124,-0.661581 3.833633,-1.066057 5.758921,-1.495193 1.81334,-0.407868 3.64336,-0.699658 5.43607,-1.276404 0.39534,-0.162933 0.84799,-0.353076 1.04057,-0.932929 0.0203,-0.06099 0.029,-0.12855 0.0435,-0.192827 -0.002,-0.06744 0.008,-0.137544 -0.006,-0.202334 -0.013,-0.06381 -0.0306,-0.138339 -0.0707,-0.171776 -0.64308,-0.536547 -1.29442,-1.055177 -1.96253,-1.524627 -0.0711,-0.04993 -0.1582,-0.03169 -0.23698,-0.02084 -0.1999,0.02753 -0.50452,0.170642 -0.69215,0.249561 -0.80456,0.508491 -1.46728,1.329398 -2.03434,2.281167 -0.12496,0.209738 -0.23964,0.431633 -0.35946,0.647448 -0.40668,0.834804 -0.78426,1.717253 -1.06638,2.654923 -0.12258,0.407441 -0.25125,0.968468 -0.35202,1.387903 -0.17717,0.755309 -0.30681,1.531751 -0.49006,2.284338 -0.082,0.336674 -0.17632,0.666889 -0.26448,1.000334 0,0 1.6473,1.320326 1.6473,1.320326 v 0 c 0.19418,-0.64474 0.37025,-1.195276 0.53187,-1.854088 0.0573,-0.233594 0.10201,-0.47316 0.15237,-0.710019 0.0482,-0.226466 0.0954,-0.453304 0.14318,-0.679956 0.11475,-0.48339 0.20409,-0.888299 0.34286,-1.359105 0.27196,-0.922773 0.62834,-1.793472 1.0257,-2.615416 0.1152,-0.211086 0.22354,-0.430253 0.34559,-0.633264 0.55271,-0.919292 1.23291,-1.677814 2.03455,-2.088815 0.29089,-0.09244 0.3824,-0.154376 0.679,-0.124227 0.0803,0.0081 0.30363,0.135035 0.23646,0.07132 -0.49865,-0.472993 -2.09756,-1.573128 -1.51588,-1.374822 0.0238,0.0081 0.0441,0.03004 0.0661,0.04505 -0.005,0.57426 -0.58363,0.767748 -0.86547,0.936555 -1.69049,0.717845 -3.43949,1.099277 -5.176493,1.503873 -1.724578,0.383539 -3.455191,0.709914 -5.179131,1.098875 -0.265707,0.05995 -0.52975,0.134428 -0.795412,0.194788 -0.217346,0.04938 -0.435656,0.08961 -0.653484,0.134418 0,0 1.675362,1.666199 1.675362,1.666199 z" />
      <ellipse
         id="path2393"
         style="fill:#918a6f;stroke:#000000;stroke-width:0.208539"
         cx="97.253021"
         cy="60.899426"
         rx="0.091543242"
         ry="0.099519148" />
      <path
         style="fill:#ff6600;fill-opacity:0.504808;stroke-width:0.763231"
         id="path2460"
         d="m 99.030265,54.940048 c 0.204399,-0.180697 0.427328,-0.342257 0.611098,-0.540818 0.124342,-0.122207 0.250589,-0.240735 0.375277,-0.362336 0.0948,-0.07006 0.1941,-0.136492 0.2791,-0.216373 0.0137,-0.0096 0.0275,-0.01922 0.0412,-0.02884 0,0 -1.781883,-0.998406 -1.781883,-0.998406 v 0 c -0.01632,0.01337 -0.03264,0.02674 -0.04895,0.04012 -0.09511,0.07651 -0.194787,0.148611 -0.283821,0.231017 -0.118221,0.127848 -0.250738,0.243415 -0.363265,0.375694 -0.171964,0.192294 -0.384138,0.35289 -0.60587,0.497415 0,0 1.777107,1.002527 1.777107,1.002527 z" />
    </g>
  </g>
</svg>
